<svg xmlns="http://www.w3.org/2000/svg" xmlns:xlink="http://www.w3.org/1999/xlink" width="1136" zoomAndPan="magnify" viewBox="0 0 852 103.5" height="138" preserveAspectRatio="xMidYMid meet" version="1.0"><defs><clipPath id="100be9cb00"><path d="M 489 67.289062 L 584 67.289062 L 584 79 L 489 79 Z M 489 67.289062 " clip-rule="nonzero"/></clipPath></defs><g clip-path="url(#100be9cb00)"><path fill="#b9b4b4" d="M 583.363281 75.523438 L 579.550781 75.414062 C 578.613281 74.699219 580.539062 74.0625 579.605469 73.34375 C 579.136719 72.984375 577.941406 72.894531 576.75 72.835938 C 575.558594 72.785156 574.359375 72.765625 573.882812 72.523438 C 571.019531 72.023438 575.808594 71.851562 578.683594 71.9375 C 577.742188 71.453125 580.601562 71.988281 580.617188 71.527344 C 580.640625 70.609375 580.671875 69.6875 576.835938 68.898438 C 575.875 68.648438 576.851562 67.976562 576.863281 67.519531 C 565.300781 67.277344 552.820312 67.269531 541.339844 68.226562 C 531.769531 68.945312 520.203125 68.019531 510.753906 68.773438 C 507.886719 69.003906 503.125 68.0625 501.210938 69.199219 L 504.074219 69.214844 C 501.207031 69.894531 498.351562 69.171875 495.492188 69.375 C 495.484375 69.832031 495.480469 70.0625 494.523438 70.28125 C 496.429688 70.316406 499.296875 70.097656 501.203125 70.34375 L 501.203125 71.035156 C 499.285156 71.246094 496.425781 70.777344 494.511719 70.96875 C 494.511719 71.199219 494.503906 71.660156 494.5 71.890625 C 494.5 72.121094 493.539062 72.105469 492.585938 72.09375 C 493.539062 72.105469 495.453125 72.136719 496.40625 72.148438 L 496.398438 73.070312 C 496.398438 73.300781 495.4375 73.289062 494.480469 73.273438 C 494.476562 73.730469 493.507812 74.179688 494.464844 74.421875 C 495.425781 74.433594 496.382812 74.445312 497.339844 74.457031 C 493.507812 74.644531 491.566406 75.757812 491.558594 76.449219 C 492.523438 76.230469 492.511719 76.921875 493.476562 76.707031 C 490.585938 77.355469 487.675781 78.226562 491.519531 78.519531 C 508.367188 79.128906 525.367188 78.902344 542.316406 78.664062 C 550.796875 78.542969 559.261719 78.40625 567.679688 78.359375 C 576.09375 78.316406 584.726562 77.183594 583.3125 76.902344 C 582.363281 76.867188 584.289062 76.019531 583.359375 75.523438 Z M 583.363281 75.523438 " fill-opacity="1" fill-rule="nonzero"/></g><path fill="#343332" d="M 835.574219 71.496094 L 802.453125 70.558594 C 794.339844 64.359375 811.0625 58.8125 802.945312 52.574219 C 798.867188 49.472656 788.507812 48.699219 778.148438 48.167969 C 767.785156 47.71875 757.386719 47.554688 753.265625 45.476562 C 728.386719 41.113281 769.988281 39.644531 794.949219 40.378906 C 786.753906 36.175781 811.589844 40.828125 811.714844 36.828125 C 811.917969 28.835938 812.203125 20.839844 778.878906 13.988281 C 770.558594 11.828125 779.042969 5.996094 779.125 2 C 678.75 -0.0820312 570.382812 -0.164062 470.703125 8.15625 C 387.578125 14.398438 287.164062 6.363281 205.101562 12.886719 C 180.222656 14.886719 138.867188 6.730469 122.265625 16.601562 L 147.105469 16.722656 C 122.226562 22.636719 97.425781 16.355469 72.589844 18.109375 C 72.546875 22.105469 72.507812 24.105469 64.1875 25.980469 C 80.746094 26.308594 105.625 24.390625 122.183594 26.550781 L 122.183594 32.546875 C 105.542969 34.382812 80.707031 30.304688 64.105469 31.976562 C 64.105469 33.976562 64.023438 37.972656 63.984375 39.96875 C 63.984375 41.96875 55.664062 41.847656 47.382812 41.722656 C 55.664062 41.847656 72.261719 42.089844 80.542969 42.214844 L 80.460938 50.207031 C 80.460938 52.207031 72.140625 52.125 63.820312 51.960938 C 63.777344 55.957031 55.378906 59.832031 63.699219 61.953125 C 72.019531 62.035156 80.339844 62.15625 88.660156 62.238281 C 55.378906 63.871094 38.53125 73.539062 38.449219 79.53125 C 46.8125 77.65625 46.730469 83.652344 55.089844 81.777344 C 30.007812 87.40625 4.722656 94.992188 38.125 97.519531 C 184.382812 102.820312 331.988281 100.863281 479.183594 98.785156 C 552.804688 97.722656 626.300781 96.539062 699.386719 96.132812 C 772.4375 95.765625 847.402344 85.9375 835.125 83.488281 C 826.886719 83.164062 843.609375 75.820312 835.53125 71.496094 Z M 835.574219 71.496094 " fill-opacity="1" fill-rule="nonzero"/></svg>